<?xml version="1.0" encoding="iso-8859-1"?>
<!-- Generator: Adobe Illustrator 22.1.0, SVG Export Plug-In . SVG Version: 6.00 Build 0)  -->
<svg xmlns="http://www.w3.org/2000/svg" xmlns:xlink="http://www.w3.org/1999/xlink" version="1.1" id="Layer_1" x="0px" y="0px" viewBox="0 0 64 64" style="enable-background:new 0 0 64 64;" xml:space="preserve" width="64px" height="64px">
<linearGradient id="SVGID_1__79039" gradientUnits="userSpaceOnUse" x1="32" y1="8.0155" x2="32" y2="56" spreadMethod="reflect">
	<stop offset="0" style="stop-color:#1A6DFF"/>
	<stop offset="1" style="stop-color:#C822FF"/>
</linearGradient>
<path style="fill:url(#SVGID_1__79039);" d="M53.98,46.83c-0.02-0.11-0.05-0.22-0.1-0.31l-21-38c-0.01-0.02-0.02-0.03-0.03-0.04  c-0.01-0.01-0.01-0.02-0.02-0.04l-0.18-0.18c-0.03-0.02-0.05-0.06-0.09-0.08c-0.06-0.04-0.13-0.06-0.2-0.09  c-0.05-0.02-0.1-0.05-0.16-0.06c-0.01-0.01-0.01-0.01-0.02-0.01c-0.06-0.01-0.12,0-0.18,0s-0.12-0.01-0.18,0c-0.01,0-0.01,0-0.02,0  c-0.07,0.02-0.13,0.05-0.19,0.08c-0.06,0.02-0.12,0.04-0.17,0.07c-0.04,0.03-0.06,0.07-0.09,0.1c-0.05,0.03-0.08,0.07-0.12,0.11  l-0.06,0.06c-0.01,0.02-0.01,0.03-0.02,0.04c-0.01,0.01-0.02,0.02-0.03,0.04l-21,38c-0.05,0.09-0.08,0.2-0.1,0.31  c0,0.02-0.01,0.05-0.01,0.08c-0.01,0.1,0,0.2,0.02,0.3v0.04c0.03,0.09,0.06,0.18,0.11,0.26c0.01,0.02,0.03,0.04,0.04,0.06  c0.01,0.01,0.01,0.02,0.02,0.03l5.25,6.96c0.02,0.02,0.05,0.03,0.07,0.05c0.04,0.06,0.09,0.1,0.15,0.14  c0.05,0.04,0.09,0.07,0.14,0.09c0.06,0.03,0.13,0.05,0.19,0.07c0.04,0.01,0.07,0.03,0.11,0.03l7.35,1.05C23.51,56,23.55,56,23.6,56  c0.48,0,0.9-0.34,0.98-0.82L25.9,48h12.2l1.32,7.18C39.5,55.66,39.92,56,40.4,56c0.05,0,0.09,0,0.14-0.01l7.35-1.05h0.01  c0,0,0.01,0,0.02,0c0.05-0.01,0.09-0.04,0.14-0.06c0.07-0.02,0.15-0.04,0.21-0.07c0.06-0.04,0.11-0.1,0.16-0.15  c0.04-0.04,0.09-0.06,0.12-0.1l5.25-6.96c0.01-0.01,0.01-0.02,0.02-0.03c0.01-0.02,0.03-0.04,0.04-0.06  c0.05-0.08,0.08-0.17,0.11-0.26v-0.04c0.02-0.1,0.03-0.2,0.02-0.3C53.99,46.88,53.98,46.85,53.98,46.83z M14.04,43.57  c0.03-0.01,0.06-0.01,0.1-0.02l0.23-0.1L14.58,46H12.7L14.04,43.57z M13.01,48h1.74l0.22,2.59L13.01,48z M42.14,29.42l-5,2.14  l-3.06-16.72L42.14,29.42z M32,14.57l3.25,17.79l-7.05,3.01L32,14.57z M22.79,53.87l-5.61-0.79L16.76,48h7.1L22.79,53.87z M24.23,46  h-7.64l-0.28-3.38l9.26-3.95L24.23,46z M15.84,40.64c-0.04-0.03-0.09-0.05-0.14-0.08l14.22-25.72L26,36.31L15.84,40.64z M26.26,46  l1.51-8.27l7.85-3.35L37.74,46H26.26z M41.21,53.87L40.14,48h5.6l0.85,5.11L41.21,53.87z M48.35,51.5L47.77,48h3.22L48.35,51.5z   M39.77,46L37.5,33.58l5.62-2.4L51.3,46H39.77z"/>
<linearGradient id="SVGID_2__79039" gradientUnits="userSpaceOnUse" x1="44.4" y1="31.18" x2="44.4" y2="46" spreadMethod="reflect">
	<stop offset="0" style="stop-color:#6DC7FF"/>
	<stop offset="1" style="stop-color:#E6ABFF"/>
</linearGradient>
<polygon style="fill:url(#SVGID_2__79039);" points="51.3,46 39.77,46 37.5,33.58 43.12,31.18 "/>
<linearGradient id="SVGID_3__79039" gradientUnits="userSpaceOnUse" x1="32" y1="34.38" x2="32" y2="46" spreadMethod="reflect">
	<stop offset="0" style="stop-color:#6DC7FF"/>
	<stop offset="1" style="stop-color:#E6ABFF"/>
</linearGradient>
<polygon style="fill:url(#SVGID_3__79039);" points="37.74,46 26.26,46 27.77,37.73 35.62,34.38 "/>
<linearGradient id="SVGID_4__79039" gradientUnits="userSpaceOnUse" x1="20.94" y1="38.67" x2="20.94" y2="46" spreadMethod="reflect">
	<stop offset="0" style="stop-color:#6DC7FF"/>
	<stop offset="1" style="stop-color:#E6ABFF"/>
</linearGradient>
<polygon style="fill:url(#SVGID_4__79039);" points="25.57,38.67 24.23,46 16.59,46 16.31,42.62 "/>
<linearGradient id="SVGID_5__79039" gradientUnits="userSpaceOnUse" x1="13.64" y1="43.45" x2="13.64" y2="46" spreadMethod="reflect">
	<stop offset="0" style="stop-color:#6DC7FF"/>
	<stop offset="1" style="stop-color:#E6ABFF"/>
</linearGradient>
<path style="fill:url(#SVGID_5__79039);" d="M14.58,46H12.7l1.34-2.43c0.03-0.01,0.06-0.01,0.1-0.02l0.23-0.1L14.58,46z"/>
</svg>
