<svg height="511pt" viewBox="1 -16 511.99975 511" width="511pt" xmlns="http://www.w3.org/2000/svg"><path d="m14.996094 30.496094c-8.28125 0-14.996094 6.714844-14.996094 15v419.9375c0 8.28125 6.714844 14.996094 14.996094 14.996094h271.960937c8.28125 0 15-6.714844 15-14.996094v-344.949219c0-49.699219-40.289062-89.988281-89.988281-89.988281zm0 0" fill="#25d9f8"/><path d="m331.949219 120.484375v284.957031c0 8.398438-6.597657 14.996094-14.996094 14.996094h-240.964844c-8.398437 0-14.996093-6.597656-14.996093-14.996094v-389.941406c0-8.402344 6.597656-15 14.996093-15h135.980469zm0 0" fill="#deecf1"/><path d="m331.949219 120.484375v284.957031c0 8.398438-6.597657 14.996094-14.996094 14.996094h-119.980469v-419.9375h14.996094zm0 0" fill="#c6e2e7"/><path d="m327.554688 94.882812-89.984376-89.988281c-2.8125-2.8125-6.621093-4.394531-10.605468-4.394531h-14.996094v104.984375c0 8.28125 6.714844 14.996094 14.996094 14.996094h104.984375v-14.996094c0-3.984375-1.582031-7.789063-4.394531-10.601563zm0 0" fill="#a8d3d8"/><path d="m402.4375 370.945312c-5.699219 6-15.292969 6-20.992188 0l-41.394531-41.394531c-6-5.695312-6-15.296875 0-20.996093 5.699219-6 15.296875-6 20.996094 0l41.390625 41.394531c6 5.699219 6 15.296875 0 20.996093zm0 0" fill="#c6e2e7"/><path d="m402.4375 370.945312c-5.699219 6-15.292969 6-20.992188 0l-41.394531-41.394531c-6-5.695312-6-15.296875 0-20.996093zm0 0" fill="#8ebac5"/><path d="m498.726562 403.640625-74.988281-74.988281c-5.699219-6-15.300781-6-21.300781 0l-20.992188 21.296875-21.296874 20.996093c-6 6-6 15.597657 0 21.296876l74.988281 74.988281c17.398437 17.699219 46.191406 17.398437 63.589843 0 17.699219-17.398438 17.699219-46.191407 0-63.589844zm0 0" fill="#6e6e6e"/><path d="m498.726562 467.230469c-17.398437 17.398437-46.191406 17.699219-63.589843 0l-74.988281-74.988281c-6-5.699219-6-15.296876 0-21.296876l21.296874-20.996093zm0 0" fill="#444"/><path d="m361.046875 329.550781c-40.796875 41.097657-107.382813 41.097657-148.175781 0-41.097656-40.792969-41.097656-107.382812 0-148.175781 40.792968-41.097656 107.382812-41.097656 148.175781 0 41.09375 40.792969 41.09375 107.382812 0 148.175781zm0 0" fill="#5a5a5a"/><path d="m361.046875 329.550781c-40.796875 41.097657-107.382813 41.097657-148.175781 0-41.097656-40.792969-41.097656-107.382812 0-148.175781zm0 0" fill="#444"/><path d="m340.050781 308.554688c-29.398437 29.09375-76.789062 29.09375-106.183593 0-29.097657-29.394532-29.097657-76.789063 0-106.183594 29.394531-29.097656 76.785156-29.097656 106.183593 0 29.09375 29.394531 29.09375 76.789062 0 106.183594zm0 0" fill="#deecf1"/><path d="m340.050781 308.554688c-29.398437 29.09375-76.789062 29.09375-106.183593 0-29.097657-29.394532-29.097657-76.789063 0-106.183594zm0 0" fill="#c6e2e7"/></svg>